/* XPM */
static char *_6f39974dab6423af9bddb13b54cecfaafJFRVrSB5jZlIEi[] = {
/* columns rows colors chars-per-pixel */
"64 64 106 2 ",
"   c black",
".  c #010101",
"X  c #020202",
"o  c gray1",
"O  c #040404",
"+  c #070707",
"@  c gray3",
"#  c #0B0B0B",
"$  c #191919",
"%  c gray11",
"&  c gray15",
"*  c #272727",
"=  c #282828",
"-  c gray17",
";  c #2D2D2D",
":  c gray18",
">  c #2E2F2F",
",  c #2F3030",
"<  c #303131",
"1  c #313232",
"2  c #323333",
"3  c #333434",
"4  c #343535",
"5  c #353636",
"6  c #3A3B3B",
"7  c #3B3C3C",
"8  c #3C3D3D",
"9  c #3D3E3E",
"0  c #434443",
"q  c #484948",
"w  c #494A49",
"e  c #4B4B4B",
"r  c #4C4C4C",
"t  c gray30",
"y  c #4D4E4E",
"u  c #4E4F4F",
"i  c #515252",
"p  c #525353",
"a  c #535454",
"s  c #545555",
"d  c #575858",
"f  c #585959",
"g  c #5A5B5B",
"h  c #5B5C5C",
"j  c #5C5D5D",
"k  c #5D5E5E",
"l  c #636464",
"z  c #666767",
"x  c #6D6F6E",
"c  c #6E706F",
"v  c #707271",
"b  c #717372",
"n  c #737574",
"m  c #747675",
"M  c #767877",
"N  c #7E7F7F",
"B  c #7F8080",
"V  c #818282",
"C  c #828383",
"Z  c #878888",
"A  c #888989",
"S  c #8A8B8B",
"D  c #8B8C8C",
"F  c #8B8D8D",
"G  c #8C8E8E",
"H  c #8D8F8F",
"J  c #9A9C9B",
"K  c #9B9D9C",
"L  c #A2A4A3",
"P  c #A6A8A7",
"I  c #A8AAA9",
"U  c #AAADAC",
"Y  c #CDD0CF",
"T  c #CED1D0",
"R  c #D0D3D2",
"E  c #D1D4D3",
"W  c #D2D5D4",
"Q  c #D3D6D5",
"!  c #D7DAD9",
"~  c #D8DBDA",
"^  c #D9DCDB",
"/  c #DCDFDE",
"(  c #DDE0DF",
")  c #DEE1E0",
"_  c #DFE1E1",
"`  c #E0E2E2",
"'  c #E1E3E3",
"]  c #E2E4E4",
"[  c #E3E5E4",
"{  c #E4E6E5",
"}  c #E6E8E7",
"|  c #E7E9E8",
" . c #E8EAE9",
".. c #E9ECEB",
"X. c #EBEEED",
"o. c #ECEFEE",
"O. c #EEF1F0",
"+. c #EFF2F1",
"@. c #F0F3F2",
"#. c #F1F4F3",
"$. c #F2F5F4",
"%. c #F3F6F5",
"&. c #F4F7F6",
"*. c #F5F8F7",
"=. c #F6F9F8",
"-. c #F7FAF9",
/* pixels */
"                                                                                                                                ",
"                                                                                                                                ",
"                                                                                                                                ",
"                                                                                                                                ",
"                                                                                                                                ",
"                                                                                                                                ",
"                                                                                                                                ",
"                                                                                                                                ",
"                                                                                                                                ",
"                                                                                                                                ",
"                                              r P P P P P P P P P U G #         D P I P P P P P P I K M P P P P P P P P P P J   ",
"                                            u #.-.-.-.-.-.-.-.-.-.X.7         O ~ -.-.-.-.-.-.-.-.-.f C -.-.-.-.-.-.-.-.-.-.#.  ",
"                                          r #.-.-.-.-.-.-.-.-.-._ >           O Y -.-.-.-.-.-.-.*.f   C -.-.-.-.-.-.-.-.-.-.|   ",
"                                        r #.-.-.-.-.-.-.-.-.-._ ,             O Y -.-.-.-.-.-.&.f     C -.-.-.-.-.-.-.-.-.-.}   ",
"                                      u #.-.-.-.-.-.-.-.-.-._ >               O Y -.-.-.-.-.&.f       C -.-.-.-.-.-.-.-.-.-.}   ",
"                                    r #.-.-.-.-.-.-.-.-.-.` ,                 O Y -.-.-.-.*.j         C -.-.-.-.-.-.-.-.-.-.}   ",
"                                  u #.-.-.-.-.-.-.-.-.-.` ,                   O Y -.-.-.-.f           C -.-.-.-.-.-.-.-.-.-.{   ",
"                                r #.-.-.-.-.-.-.-.-.-.` ,                     O Y -.-.-.j             C -.-.-.-.-.-.-.-.-.-.}   ",
"                              u #.-.-.-.-.-.-.-.-.-.' <                       O Y -.-.h               C -.-.-.-.-.-.-.-.-.-.}   ",
"                            r #.-.-.-.-.-.-.-.-.-.` <                         O E -.j                 C -.-.-.-.-.-.-.-.-.-.}   ",
"                          r #.-.-.-.-.-.-.-.-.-.' 2                           O Q z                   C -.-.-.-.-.-.-.-.-.-...  ",
"                        r #.-.-.-.-.-.-.-.-.-._ 2                             # 8                     H -.-.-.-.-.-.-.-.-.-.^   ",
"                      r #.-.-.-.-.-.-.-.-.-.' 2                                                     p o.-.-.-.-.-.-.-.-.-._ <   ",
"                    r #.-.-.-.-.-.-.-.-.-.' 3                                                     a #.-.-.-.-.-.-.-.-.-._ ,     ",
"                  r #.-.-.-.-.-.-.-.-.-.' 2                                                     a #.-.-.-.-.-.-.-.-.-._ >       ",
"                r +.-.-.-.-.-.-.-.-.-.' 3                                                     a #.-.-.-.-.-.-.-.-.-._ >         ",
"              r +.-.-.-.-.-.-.-.-.-.' 3                                                     a &.-.-.-.-.-.-.-.-.-./ >           ",
"            r #.-.-.-.-.-.-.-.-.-.' 5                                                     p #.-.-.-.-.-.-.-.-.-._ >             ",
"          r +.-.-.-.-.-.-.-.-.-.} 2                                                     s #.-.-.-.-.-.-.-.-.-.( >               ",
"        r #.-.-.-.-.-.-.-.-.-.' 5                                                     s #.-.-.-.-.-.-.-.-.-._ -                 ",
"      r @.-.-.-.-.-.-.-.-.-.' 5                                                     a #.-.-.-.-.-.-.-.-.-.( >                   ",
"    r @.-.-.-.-.-.-.-.-.-.' 3                                                     s #.-.-.-.-.-.-.-.-.-./ -                     ",
"  r +.-.-.-.-.-.-.-.-.-.{ 8   # O # O # O # O # O # O # O # O # # # #           p #.-.-.-.-.-.-.-.-.-.~ >                       ",
"  | -.-.-.-.-.-.-.-.-.-...T ! ! ~ ! ~ ! ~ ! ~ ! ~ ! ~ ! ~ ~ ~ ~ ! ! ~ <       O E -.-.-.-.-.-.-.-.-.-.m                     n   ",
"  ..-.-.-.-.-.-.-.-.-.-.-.-.-.-.-.-.-.-.-.-.-.-.-.-.-.-.-.-.-.-.*.-.-.7       O T -.-.-.-.-.-.-.-.-.-.n                   G *.  ",
"  | -.-.-.-.-.-.-.-.-.-.-.-.-.-.-.-.-.-.-.-.-.-.-.-.-.-.-.-.-.-.-.-.-.6       O Y -.-.-.-.-.-.-.-.-.-.m                 Z -. .  ",
"  } -.-.-.-.-.-.-.-.-.-.-.-.-.-.-.-.-.-.-.-.-.-.-.-.-.-.-.-.-.-.-.-.-.6       O Y -.-.-.-.-.-.-.-.-.-.m               S -.-.}   ",
"  } -.-.-.-.-.-.-.-.-.-.-.-.-.-.-.-.-.-.-.-.-.-.-.-.-.-.-.-.-.-.-.-.-.6       O Y -.-.-.-.-.-.-.-.-.-.m             S -.-.-.}   ",
"  } -.-.-.-.-.-.-.-.-.-.-.-.-.-.-.-.-.-.-.-.-.-.-.-.-.-.-.-.-.-.-.-.-.6       O Y -.-.-.-.-.-.-.-.-.-.m           D -.-.-.-.}   ",
"  } -.-.-.-.-.-.-.-.-.-.-.-.-.-.-.-.-.-.-.-.-.-.-.-.-.-.-.-.-.-.-.-.-.6       O Y -.-.-.-.-.-.-.-.-.-.m         S -.-.-.-.-.}   ",
"  } -.-.-.-.-.-.-.-.-.-.-.-.-.-.-.-.-.-.-.-.-.-.-.-.-.-.-.-.-.-.-.-.-.6       O T -.-.-.-.-.-.-.-.-.-.m       D -.-.-.-.-.-.}   ",
"  +.-.-.-.-.-.-.-.-.-.-.-.-.-.-.-.-.-.-.-.-.-.-.-.-.-.-.-.-.-.-.-.-.-.6       O T -.-.-.-.-.-.-.-.-.-.n     D -.-.-.-.-.-.-.}   ",
"  0 q q q q q q q q q q q q q q q q q q q q q l #.-.-.-.-.-.-.-.-.-.-.6       O Y -.-.-.-.-.-.-.-.-.-.v   D -.-.-.-.-.-.-.-.}   ",
"                                              % #.-.-.-.-.-.-.-.-.-.-.6       O ^ -.-.-.-.-.-.-.-.-.-.B D -.-.-.-.-.-.-.-.-.#.  ",
"                                              & #.-.-.-.-.-.-.-.-.-.-.6         h x x x x x x x c c x a b c x x x x x x c x z   ",
"                                              & #.-.-.-.-.-.-.-.-.-.-.6                                                         ",
"                                              & #.-.-.-.-.-.-.-.-.-.-.6                                                         ",
"                                              & #.-.-.-.-.-.-.-.-.-.-.6                                                         ",
"                                              & #.-.-.-.-.-.-.-.-.-.-.6                                                         ",
"                                              & #.-.-.-.-.-.-.-.-.-.-.6                                                         ",
"                                              & #.-.-.-.-.-.-.-.-.-.-.6                                                         ",
"                                              & #.-.-.-.-.-.-.-.-.-.-.7                                                         ",
"                                              - -.-.-.-.-.-.-.-.-.-.-.8                                                         ",
"                                              $ L P P P P P P P P P P *                                                         ",
"                                                                                                                                ",
"                                                                                                                                ",
"                                                                                                                                ",
"                                                                                                                                ",
"                                                                                                                                ",
"                                                                                                                                ",
"                                                                                                                                ",
"                                                                                                                                ",
"                                                                                                                                ",
"                                                                                                                                "
};
