/* XPM */
static char *e1a097ba2896434de1d52fa405de4f61O7O1Pti7CFaPKut9[] = {
/* columns rows colors chars-per-pixel */
"64 64 219 2 ",
"   c black",
".  c #000101",
"X  c #000201",
"o  c #010302",
"O  c #010402",
"+  c #010503",
"@  c #010604",
"#  c #010704",
"$  c #010805",
"%  c #020905",
"&  c #020A06",
"*  c #020B07",
"=  c #020C07",
"-  c #020D08",
";  c #020E08",
":  c #030F09",
">  c #03100A",
",  c #03110A",
"<  c #03120B",
"1  c #03130B",
"2  c #03140C",
"3  c #04150D",
"4  c #04160D",
"5  c #04180E",
"6  c #04190F",
"7  c #041A10",
"8  c #051C11",
"9  c #051D11",
"0  c #051F13",
"q  c #052013",
"w  c #062114",
"e  c #062214",
"r  c #062315",
"t  c #062416",
"y  c #062516",
"u  c #072717",
"i  c #072818",
"p  c #072A19",
"a  c #072C1A",
"s  c #082E1C",
"d  c #082F1C",
"f  c #08311D",
"g  c #08321E",
"h  c #09331F",
"j  c #09341F",
"k  c #093520",
"l  c #093620",
"z  c #093721",
"x  c #093822",
"c  c #0A3922",
"v  c #0A3B23",
"b  c #0A3C24",
"n  c #0A3D25",
"m  c #0B4026",
"M  c #0B4127",
"N  c #0B4228",
"B  c #0B4328",
"V  c #0B4429",
"C  c #0C4529",
"Z  c #0C462A",
"A  c #0C472B",
"S  c #0C482B",
"D  c #0C492C",
"F  c #0D4C2E",
"G  c #0D4D2E",
"H  c #0D4E2F",
"J  c #0D4F2F",
"K  c #0D5030",
"L  c #0E5131",
"P  c #0E5332",
"I  c #0E5432",
"U  c #0E5533",
"Y  c #0F5634",
"T  c #0F5734",
"R  c #0F5835",
"E  c #0F5935",
"W  c #0F5A36",
"Q  c #0F5B37",
"!  c #105C37",
"~  c #105D38",
"^  c #105E38",
"/  c #105F39",
"(  c #10603A",
")  c #10613A",
"_  c #11623B",
"`  c #11633B",
"'  c #11673E",
"]  c #12683E",
"[  c #12693F",
"{  c #126A40",
"}  c #126B40",
"|  c #126C41",
" . c #126D41",
".. c #136E42",
"X. c #136F43",
"o. c #137043",
"O. c #137144",
"+. c #137244",
"@. c #137345",
"#. c #147446",
"$. c #147546",
"%. c #147647",
"&. c #147747",
"*. c #147848",
"=. c #147949",
"-. c #157A49",
";. c #157B4A",
":. c #157C4A",
">. c #157D4B",
",. c #157E4C",
"<. c #157F4C",
"1. c #16804D",
"2. c #16814D",
"3. c #16824E",
"4. c #16834F",
"5. c #16844F",
"6. c #168550",
"7. c #178650",
"8. c #178751",
"9. c #178952",
"0. c #178A53",
"q. c #178B53",
"w. c #188C54",
"e. c #188E55",
"r. c #188F56",
"t. c #189157",
"y. c #199258",
"u. c #199358",
"i. c #19965A",
"p. c #19975B",
"a. c #1A985B",
"s. c #1A995C",
"d. c #1A9A5C",
"f. c #1A9C5E",
"g. c #1A9D5E",
"h. c #1B9E5F",
"j. c #1B9F5F",
"k. c #1BA060",
"l. c #1BA161",
"z. c #1BA261",
"x. c #1BA362",
"c. c #1CA462",
"v. c #1CA664",
"b. c #1CA764",
"n. c #1CA865",
"m. c #1CA965",
"M. c #1DAB67",
"N. c #1DAD68",
"B. c #1DAE68",
"V. c #1EAF69",
"C. c #1EB06A",
"Z. c #1EB16A",
"A. c #1EB26B",
"S. c #1EB36B",
"D. c #1EB46C",
"F. c #1FB56D",
"G. c #1FB66D",
"H. c #1FB96F",
"J. c #1FBA70",
"K. c #20BB70",
"L. c #20BC71",
"P. c #20BF73",
"I. c #21C174",
"U. c #21C274",
"Y. c #21C375",
"T. c #21C476",
"R. c #21C576",
"E. c #21C677",
"W. c #22C777",
"Q. c #22C878",
"!. c #22C979",
"~. c #22CA79",
"^. c #22CB7A",
"/. c #22CC7A",
"(. c #23CE7C",
"). c #23CF7C",
"_. c #23D07D",
"`. c #23D17D",
"'. c #23D27E",
"]. c #24D47F",
"[. c #24D580",
"{. c #24D680",
"}. c #24D781",
"|. c #25D982",
" X c #25DA83",
".X c #25DB83",
"XX c #25DC84",
"oX c #25DD85",
"OX c #25DE85",
"+X c #26DF86",
"@X c #26E086",
"#X c #26E187",
"$X c #26E288",
"%X c #26E388",
"&X c #26E489",
"*X c #27E589",
"=X c #27E68A",
"-X c #27E78B",
";X c #27E88B",
":X c #27E98C",
">X c #27EA8C",
",X c #28EB8D",
"<X c #28ED8E",
"1X c #28EE8F",
"2X c #28EF8F",
"3X c #29F191",
"4X c #29F291",
"5X c #29F392",
"6X c #29F593",
"7X c #29F694",
"8X c #2AF794",
"9X c #2AF895",
"0X c #2AF995",
"qX c #2AFA96",
"wX c #2AFB97",
"eX c #2AFC97",
"rX c #2BFD98",
"tX c #2BFE98",
"yX c #2BFF99",
/* pixels */
"                                                                                                                                ",
"                                                                                                                                ",
"                                                                                                                                ",
"                                                                                                                                ",
"                                                                                                                                ",
"                                                                                                                                ",
"                                                                                                                                ",
"                                                                                                                                ",
"                                                                                                                                ",
"                                                                                                                                ",
"                                                      r B ~ <.d.k.e.| K j >                                                     ",
"                                              : K e.W.3XyXyXyXyXyXyXyXyXyX+XN.O.d                                               ",
"                        :                 D v.7XyXyXyXyXyX=X).T.Y.W. X7XyXyXyXyXyX'.*.8               % :                       ",
"                        Y.Z.          ~ ).yXyXyX=Xc.] k 1             # r J 6.T.yXyXyXyXd.t         1 ,XJ                       ",
"                        qXyX      V /.yXyXyXx.A                                 8 &.'.yXyXyXe.#     T yXo.                      ",
"                      B yX_.  # v.yXyXyX0.8                                           J ^.yXyX$XR   d yX;X                      ",
"                    % +XyXK %  XyXyXY.j                                                   *.yXyXyX&.  _.yX3.                    ",
"                  4  XyXyXy.+XyXyXO.                                                        t Y.yXyXd.D.yXyX0.                  ",
"                % $XyXyXeXyXyXm.:                                                               K >XyXyXyXyXyX6.                ",
"                _.yXyXyXyXyXyX<.                                                                r _.yXyXyXyXyXyX..              ",
"              J.yXyXyXyXyXyXyXyX6XB                                                           k.yXyXyXyXyXyXyXyXyXI             ",
"            e.yXyXyXyXyXyXyXyXyXyXyX                                                        ! yXyXyXyXyXyXyXyXyXyXyXt           ",
"          T yXyXyXyXyXyXyXeXv.m.yXyX`                                                       [.yX>X0.[.yXyXyXyXyXyXyX*X          ",
"        r yXyXyXyXyXyXyXyXyXj.R qXyX3Xg                                                   3.yXyXY.J 3XyXyXyXyXyXyXyXyXH.        ",
"        +XyXyXyXyXyXyXyXyXyXyXyXyXyXyXyXc.n                                         % { ).yXyXyXyXyXyXyXyXyXyXyXyXyXyXyXO.      ",
"      t.yXyXyXyXyXyXyXyXyXyXyXyXyXyXyXyXyXyXL.n                                   &.*XyXyXyXyXyXyXyXyXyXyXyXyXyXyXyXyXyXyXr     ",
"    t yXyXyXyXyXyXyXyXyXyXyXyXyXyXyXyXyXyXyXyXyX]                             % T.yXyXyXyXyXyXyXyXyXyXyXyXyXyXyXyXyXyXyXyX^.    ",
"    K.yXyXyXyXyXyXyXyXyXyXyXyXyXyXyXyXyXyXyXyXyXN.                            1 yXyXyXyXyXyXyXyXyXyXyXyXyXyXyXyXyXyXyXyXyXyXN   ",
"  k yXyXyXyXyXyXyXyXyXyXyX3.e.<XyXyXyXyXyXyXyX X5                               ~ yXyXyXyXyXyXyXyXT.2.N.yXyXyXyXyXyXyXyXyXyX XO ",
"  K.yXyXyXyXyXyXyXyXyXyXT     : :. XyXyXyX<Xe.O                                   n K.yXyXyXyXF.J       T.yXyXyXyXyXyXyXyXyXyX{ ",
"  yXyXyXyXyXyXyXyXyXyXY.            % t 2                                               r w             > yXyXyXyXyXyXyXyXyXyXN.",
"  >XyXyXyXyXyXyXyXyXyXL.o.*.*.*.&.| R J I ' &.*.*.*.*.*.*.*.*.*.*.*.*.*.*.*.*.*.*.*.O.~ K J ` O.*.*.*.*.O.7XyXyXyXyXyXyXyXyXyXy.",
"  ` yXyXyXyXyXyXyXyXyXyXyXyXyXyXyXyXyXyXyXyXyXyXyXyXyXyXyXyXyXyXyXyXyXyXyXyXyXyXyXyXyXyXyXyXyXyXyXyXyXyXyXyXyXyXyXyXyXyXyXyXwXr ",
"    Z.yXyXyXyXyXyXyXyX*.                              O                                             o   # -XyXyXyXyXyXyXyXyXA   ",
"      N.yXyXyXyXyXyXyXo.                                                              7 d u #             -XyXyXyXyXyXyXyX!     ",
"        ..6XyXyXyXyXyXT > <X<X<X<X<X<X<X<X<X<X<XD.          8 @X<X<X<X<X0.        <.+XyXyXyX7XK.R         =XyXyXyXyXyXY.k       ",
"          7 Y.yXyXyXyXK 4 yXyXyXyXyXyXyXyXyXyXyX_.           XyXyXyXyXyXj.    : _.yXyXyXyXyXyXyXyXd.    # =XyXyXyXyX&.          ",
"              K.yXyXyXK 4 yXyXyXyXyXyXyXyXyXyXyX).        0.yXyXyXyXyXyXy.    N.yXyXyXyXyXyXyXyXyXyX`   o =XyXyXyX~             ",
"                K.yXyXT >  XXX XXX X X_.yXyXyXyXZ.      k yXyXyXyXyXyXyXy.  r yXyXyXyX$X*.*.=XyXyXyX3X    =XyXyX~               ",
"                  #XyX*.              ! yXyXyXyXa     # <XyXyXyX$XyXyXyXy.  ( yXyXyX7X:     7 qXyXyXyXn   >XyX<.                ",
"                  N yX:.              =XyXyXyXD.      F.yXyXyXK a.yXyXyXy.  { yXyXyX7X:       3XyXyXyX*.  yX3X                  ",
"                    7Xi.            O.yXyXyXyXi     | yXyXyXN.  L.yXyXyXy.  c yXyXyXyX+XO.| +XyXyXyXyXi.  yX:.                  ",
"                    $Xk.            3XyXyXyXK.    r yXyXyX$X    W.yXyXyX0.     XyXyXyXyXyXyXyXyXyXyXyXj.  yXK                   ",
"                    *Xh.          ' yXyXyXyXk   % [.yXyXyXT   % ^.yXyXyXp.:   d qXyXyXyXyXyXyXyXyXyXyXt.  yX~                   ",
"                    *Xh.          <XyXyXyXW.    ~ yXyXyXeX+X3X3XwXyXyXyXqX7X`   5 0.=XyX6XD.X.3XyXyXyX|   yX~                   ",
"                    *Xk.        e.yXyXyXyXc     K yXyXyXyXyXyXyXyXyXyXyXyXyX|               O.yXyXyXyXt   yX~                   ",
"                    $Xj.      2 yXyXyXyX^.      g yXyXyXyXyXyXyXyXyXyXyXyXyX&.  ~ 3X6.v B x.yXyXyXyX[.  O yX~                   ",
"                    *Xk.      k.yXyXyXyXc       * O.&.@.@.O.@.O.@XyXyXyXY.O.p # >XyXyXyXyXyXyXyXyXyXg   % yX~                   ",
"                    *Xh.    > yXyXyXyX[.                        I.yXyXyX3.    i.yXyXyXyXyXyXyXyXyX|     % yX~                   ",
"                    $Xj.    M.yXyXyXyXJ                          XyXyXyXx.    B Z.yXyXyXyXyXyXI.D       % yX~                   ",
"                    *Xj.    N n n c c                           s b n n 8         8 I &.&.R t           # yX~                   ",
"                    ,Xy.                                                                                  yX`                   ",
"                    ,XyX X XXXXX XXXXX XXX X+X X+X X XXXXXXX XXX+X XXXXX XXXXX X+X X XXX XXXXX X+X X X X@XyX~                   ",
"                    { N.^.^.^.^.^.^.^.^.^.Q.^.^.^.^.^.^.^.^.^.^.^.Q.^.^.^.^.^.^.^.^.^.^.^.^.^.^.^.^.^.^.^.j.t                   ",
"                                                                                                                                ",
"                                                                                                                                ",
"                                                                                                                                ",
"                                                                                                                                ",
"                                                                                                                                ",
"                                                                                                                                ",
"                                                                                                                                ",
"                                                                                                                                ",
"                                                                                                                                ",
"                                                                                                                                "
};
